<?xml version="1.0" standalone="no"?>
<!DOCTYPE svg PUBLIC "-//W3C//DTD SVG 20010904//EN"
 "http://www.w3.org/TR/2001/REC-SVG-20010904/DTD/svg10.dtd">
<svg version="1.0" xmlns="http://www.w3.org/2000/svg"
 width="512.000000pt" height="512.000000pt" viewBox="0 0 512.000000 512.000000"
 preserveAspectRatio="xMidYMid meet">
<metadata>
Created by potrace 1.14, written by Peter Selinger 2001-2017
</metadata>
<g transform="translate(0.000000,512.000000) scale(0.100000,-0.100000)"
fill="#000000" stroke="none">
<path d="M2366 5049 c-778 -60 -1490 -493 -1920 -1169 -72 -113 -190 -360
-236 -495 -52 -151 -84 -277 -112 -441 -30 -174 -32 -568 -5 -742 89 -554 324
-1021 711 -1407 150 -149 308 -274 471 -372 730 -439 1624 -480 2380 -108 268
131 462 270 675 484 207 209 341 393 468 646 102 204 162 376 208 591 213
1005 -205 2033 -1056 2599 -367 245 -764 381 -1205 414 -156 12 -220 12 -379
0z m1054 -2456 c282 -703 519 -1293 527 -1311 l13 -32 -399 0 -399 0 -72 210
-73 210 -465 -2 -466 -3 -70 -207 -71 -208 -389 0 c-365 0 -388 1 -382 18 4 9
235 599 514 1309 l507 1293 356 0 356 0 513 -1277z"/>
<path d="M2547 3033 c-7 -11 -277 -778 -277 -786 0 -4 129 -7 286 -7 265 0
286 1 280 17 -4 9 -68 188 -142 398 -75 209 -137 381 -139 383 -2 2 -5 0 -8
-5z"/>
</g>
</svg>
