
  <svg
    xmlns="http://www.w3.org/2000/svg"
    version="1.1"
    width="256"
    height="256"
    viewBox="0 0 500 500"
  >
    
  <rect
    width="500"
    height="500"
    rx="250"
    fill="#ece2e1"
  />

    <path fill="#ec8a90" d="M440.7 280.2c0 6.7-.4 13.1-1.2 19.2-1.1 7.9-2.9 15.2-5.3 21.9a86.3 86.3 0 01-20.7 32.6C393 374.3 362 385.2 325 390.6c-23 3.3-48.3 4.5-74.9 4.5a529 529 0 01-75-4.6c-68-9.8-115.7-38.4-115.7-110.3 0-96.3 85.4-174.3 190.7-174.3 95.7 0 175 64.4 188.6 148.3a161 161 0 012.1 26z"/>
  
    <path fill="#ec8a90" d="M104.3 167.8a176.9 176.9 0 00-21.6 28.8 67.7 67.7 0 01-24.4-12.8 38.1 38.1 0 01-14.1-29.4c-.4-7 .7-13.8 1.8-19.5 2.6-13.3 52.2 27.8 58.3 32.9zM395.8 167.8a176.9 176.9 0 0121.6 28.8 67.7 67.7 0 0024.4-12.8 38.1 38.1 0 0014.1-29.4c.3-7-.7-13.8-1.9-19.5-2.6-13.3-52.2 27.8-58.2 32.9z"/>
    <path fill="#fec3aa" d="M91.3 183.6c-3.1 4.2-6 8.5-8.6 13a67.7 67.7 0 01-24.4-12.8 38.1 38.1 0 01-14.1-29.4c6.6.3 22 2 30.3 11 5.4 5.7 11.8 12.7 16.8 18.2zM408.8 183.6c3 4.2 6 8.5 8.6 13a67.7 67.7 0 0024.4-12.8 38.1 38.1 0 0014.1-29.4c-6.7.3-22 2-30.3 11-5.5 5.7-11.8 12.7-16.8 18.2z"/>
    <path fill="#937155" d="M114 61.8s6.7-1 9.5 6.8 1 20.3 8.3 24.1c7.4 3.8 17.2 1.2 16.8-9.8-.4-11 3.2-19.3 10.7-15 7.6 4.5 10.6 13.6 9.4 30.2s-1 36.3-5.2 41.7c-4.2 5.3-20.1 5.3-25.5-2.2-5.4-7.6-8-11-16.3-16a61.2 61.2 0 01-24.1-29.3c-3.4-11.5-1.3-32.7 16.5-30.5zM385.8 61.8s-6.6-1-9.4 6.8-1 20.3-8.3 24.1c-7.4 3.8-17.2 1.2-16.8-9.8.4-11-3.2-19.3-10.8-15-7.5 4.5-10.5 13.6-9.3 30.2s1 36.3 5.2 41.7c4.2 5.3 20 5.3 25.5-2.2 5.4-7.6 8-11 16.3-16 8.4-5 20.7-17.7 24.1-29.3 3.4-11.5 1.2-32.7-16.5-30.5z"/>
  
    <path fill="#15212a" d="M249.23 293.56c-24.54-7.26-40.9-32.68 1.34-33.81 40.65 1.14 25.14 26.93 1.34 33.82-.87.25-1.81.24-2.68-.01z"/>
    <path fill="#15212a" d="M288.25 294.99c-7.94 7.07-15.74 12.03-23.51 14.78a42.65 42.65 0 0 1-15.01 2.74 41.63 41.63 0 0 1-14.75-2.68c-7.73-2.74-15.47-7.7-23.24-14.88a1.62 1.62 0 0 1-.1-2.31 1.67 1.67 0 0 1 2.35-.1c7.78 7.15 15.41 12.03 23.02 14.58 1.19.4 2.37.74 3.56 1.03a38.47 38.47 0 0 0 18.35 0c1.15-.28 2.3-.6 3.46-.99 7.74-2.54 15.59-7.43 23.65-14.65a1.7 1.7 0 0 1 2.35.13c.59.69.56 1.75-.13 2.35z"/>
  
    <circle cx="169" cy="250" r="20.4" fill="#15212a"/>
    <circle cx="175.4" cy="255.8" r="9.6" fill="#fff"/>
    <circle cx="159.4" cy="241" r="4.2" fill="#fff"/>
    <circle cx="331" cy="250" r="20.4" fill="#15212a"/>
    <circle cx="324.6" cy="255.8" r="9.6" fill="#fff"/>
    <circle cx="340.6" cy="241" r="4.2" fill="#fff"/>
  
    <path fill="#15212a" d="M139.8 203c-1 0-2-.3-2.8-.9a5 5 0 01-1.3-7c10.5-15.5 25.8-20.4 45.7-14.5a5 5 0 11-2.9 9.6c-15.6-4.7-26.6-1.3-34.5 10.6a5 5 0 01-4.2 2.2zM361.4 203a5 5 0 01-4.2-2.2c-8-12-19-15.3-34.5-10.6a5 5 0 11-2.9-9.6c19.9-6 35.2-1 45.7 14.6a5 5 0 01-4.1 7.8z"/>
  
  <path
    d="M250,0a250,250 0 1,1 0,500"
    fill="#15212a"
    fill-opacity="0.08"
  />

  </svg>
