<?xml version="1.0" standalone="no"?>
<!DOCTYPE svg PUBLIC "-//W3C//DTD SVG 20010904//EN"
 "http://www.w3.org/TR/2001/REC-SVG-20010904/DTD/svg10.dtd">
<svg version="1.0" xmlns="http://www.w3.org/2000/svg"
 width="512.000000pt" height="512.000000pt" viewBox="0 0 512.000000 512.000000"
 preserveAspectRatio="xMidYMid meet">
<metadata>
Created by potrace 1.14, written by Peter Selinger 2001-2017
</metadata>
<g transform="translate(0.000000,512.000000) scale(0.100000,-0.100000)"
fill="#000000" stroke="none">
<path d="M2505 5094 c-15 -16 -25 -40 -26 -58 0 -17 -1 -151 -1 -298 0 -232 2
-271 16 -293 31 -47 111 -41 135 11 15 35 15 584 0 618 -11 23 -53 46 -86 46
-8 0 -25 -12 -38 -26z"/>
<path d="M1256 4734 c-28 -28 -36 -50 -27 -80 15 -52 307 -498 334 -512 57
-28 124 28 107 89 -12 40 -298 487 -324 505 -27 19 -71 18 -90 -2z"/>
<path d="M3823 4720 c-25 -10 -335 -470 -344 -510 -7 -32 16 -79 44 -89 35
-13 87 11 112 50 13 22 67 103 193 292 80 120 105 165 104 189 -1 53 -59 89
-109 68z"/>
<path d="M2390 4010 c-19 -5 -53 -11 -75 -14 -111 -15 -295 -84 -419 -157
-276 -163 -495 -437 -591 -740 -40 -129 -58 -250 -57 -399 0 -74 3 -148 6
-165 3 -16 9 -46 12 -65 7 -49 52 -208 71 -250 40 -92 81 -171 123 -234 56
-86 72 -105 190 -230 169 -178 224 -347 230 -703 0 -12 11 -34 24 -50 l24 -28
623 -1 c541 0 628 2 651 15 36 20 40 30 43 139 5 139 20 237 54 347 38 121 82
192 187 300 80 82 111 120 165 200 212 316 275 702 175 1080 -85 325 -325 628
-629 799 -67 37 -245 111 -288 120 -13 2 -58 12 -99 21 -82 19 -359 28 -420
15z"/>
<path d="M450 3876 c-26 -29 -29 -66 -7 -99 14 -21 140 -93 433 -249 51 -26
102 -48 114 -48 31 0 80 52 80 85 0 25 -49 85 -70 85 -4 0 -43 20 -86 43 -44
24 -115 63 -159 87 -44 23 -112 60 -152 81 -84 46 -120 49 -153 15z"/>
<path d="M4505 3852 c-49 -27 -121 -65 -160 -86 -94 -51 -159 -87 -221 -120
-73 -39 -93 -90 -54 -138 41 -52 61 -46 315 93 39 21 108 58 155 83 142 75
168 106 144 171 -7 17 -54 45 -76 45 -7 0 -53 -22 -103 -48z"/>
<path d="M2005 865 c-5 -2 -21 -6 -35 -9 -33 -7 -88 -53 -107 -90 -23 -44 -27
-125 -9 -167 22 -53 87 -105 144 -115 26 -5 290 -9 587 -8 594 1 578 0 641 62
97 96 61 262 -68 316 -30 13 -117 15 -589 15 -305 0 -558 -2 -564 -4z"/>
<path d="M2510 390 l-385 -5 -37 -25 c-120 -82 -117 -261 7 -332 l40 -23 430
0 430 0 37 25 c44 30 88 94 89 132 1 15 2 34 3 41 7 43 -46 132 -95 161 -48
28 -109 31 -519 26z"/>
</g>
</svg>
